<svg width="66" height="66" viewBox="0 0 66 66" fill="none" xmlns="http://www.w3.org/2000/svg">
<path d="M57.4208 15.84H16.5008C13.5968 15.84 11.2208 18.216 11.2208 21.12V23.1C11.2208 23.826 11.8148 24.42 12.5408 24.42C13.2668 24.42 13.8608 23.826 13.8608 23.1V21.12C13.8608 20.856 13.9268 20.592 13.9928 20.328L28.7768 33L13.9928 45.672C13.9268 45.408 13.8608 45.144 13.8608 44.88V42.9C13.8608 42.174 13.2668 41.58 12.5408 41.58C11.8148 41.58 11.2208 42.174 11.2208 42.9V44.88C11.2208 47.784 13.5968 50.16 16.5008 50.16H57.4208C60.3248 50.16 62.7008 47.784 62.7008 44.88V21.12C62.7008 18.216 60.3248 15.84 57.4208 15.84ZM15.9728 18.546C16.1048 18.48 16.3028 18.48 16.5008 18.48H57.4208C57.6188 18.48 57.8168 18.48 57.9488 18.546L37.8188 35.772C37.2908 36.168 36.6308 36.168 36.1028 35.772L15.9728 18.546ZM57.4208 47.52H16.5008C16.3028 47.52 16.1048 47.52 15.9728 47.454L30.8228 34.716L34.3868 37.818C35.1128 38.478 36.0368 38.808 36.9608 38.808C37.8848 38.808 38.8088 38.478 39.5348 37.818L43.0988 34.716L57.9488 47.454C57.8168 47.52 57.6188 47.52 57.4208 47.52ZM60.0608 44.88C60.0608 45.144 59.9948 45.408 59.9288 45.672L45.1448 33L59.9288 20.328C59.9948 20.592 60.0608 20.856 60.0608 21.12V44.88ZM7.26078 29.7C7.26078 28.974 7.85478 28.38 8.58078 28.38H16.5008C17.2268 28.38 17.8208 28.974 17.8208 29.7C17.8208 30.426 17.2268 31.02 16.5008 31.02H8.58078C7.85478 31.02 7.26078 30.426 7.26078 29.7ZM16.5008 37.62H4.62078C3.89478 37.62 3.30078 37.026 3.30078 36.3C3.30078 35.574 3.89478 34.98 4.62078 34.98H16.5008C17.2268 34.98 17.8208 35.574 17.8208 36.3C17.8208 37.026 17.2268 37.62 16.5008 37.62Z" fill="#006699"/>
</svg>
