<svg width="32" height="32" viewBox="0 0 32 32" fill="none" xmlns="http://www.w3.org/2000/svg">
<path d="M27.9998 9.33333H10.6665C10.3129 9.33333 9.97374 9.19285 9.7237 8.94281C9.47365 8.69276 9.33317 8.35362 9.33317 8C9.33317 7.64638 9.47365 7.30724 9.7237 7.05719C9.97374 6.80714 10.3129 6.66666 10.6665 6.66666H27.9998C28.3535 6.66666 28.6926 6.80714 28.9426 7.05719C29.1927 7.30724 29.3332 7.64638 29.3332 8C29.3332 8.35362 29.1927 8.69276 28.9426 8.94281C28.6926 9.19285 28.3535 9.33333 27.9998 9.33333ZM29.3332 16C29.3332 15.6464 29.1927 15.3072 28.9426 15.0572C28.6926 14.8071 28.3535 14.6667 27.9998 14.6667H3.99984C3.64622 14.6667 3.30708 14.8071 3.05703 15.0572C2.80698 15.3072 2.6665 15.6464 2.6665 16C2.6665 16.3536 2.80698 16.6928 3.05703 16.9428C3.30708 17.1929 3.64622 17.3333 3.99984 17.3333H27.9998C28.3535 17.3333 28.6926 17.1929 28.9426 16.9428C29.1927 16.6928 29.3332 16.3536 29.3332 16ZM29.3332 24C29.3332 23.6464 29.1927 23.3072 28.9426 23.0572C28.6926 22.8071 28.3535 22.6667 27.9998 22.6667H15.9998C15.6462 22.6667 15.3071 22.8071 15.057 23.0572C14.807 23.3072 14.6665 23.6464 14.6665 24C14.6665 24.3536 14.807 24.6928 15.057 24.9428C15.3071 25.1929 15.6462 25.3333 15.9998 25.3333H27.9998C28.3535 25.3333 28.6926 25.1929 28.9426 24.9428C29.1927 24.6928 29.3332 24.3536 29.3332 24Z" fill="black"/>
</svg>
