<svg width="73" height="72" viewBox="0 0 73 72" fill="none" xmlns="http://www.w3.org/2000/svg">
<path fill-rule="evenodd" clip-rule="evenodd" d="M36.4998 5.1665C19.4711 5.1665 5.6665 18.9711 5.6665 35.9998C5.6665 53.0285 19.4711 66.8332 36.4998 66.8332C53.5285 66.8332 67.3332 53.0285 67.3332 35.9998C67.3332 18.9711 53.5285 5.1665 36.4998 5.1665ZM0.666504 35.9998C0.666504 16.2096 16.7096 0.166504 36.4998 0.166504C56.2902 0.166504 72.3332 16.2096 72.3332 35.9998C72.3332 55.7902 56.2902 71.8332 36.4998 71.8332C16.7096 71.8332 0.666504 55.7902 0.666504 35.9998Z" fill="#26D701"/>
<path fill-rule="evenodd" clip-rule="evenodd" d="M49.934 25.8987C50.9103 26.875 50.9103 28.458 49.934 29.4342L33.2673 46.1008C32.291 47.0772 30.7083 47.0772 29.7319 46.1008L23.0652 39.4342C22.0889 38.4578 22.0889 36.8752 23.0652 35.8988C24.0415 34.9225 25.6245 34.9225 26.6008 35.8988L31.4997 40.7975L46.3987 25.8987C47.375 24.9224 48.9577 24.9224 49.934 25.8987Z" fill="#00AB08"/>
</svg>
