<svg width="24" height="24" viewBox="0 0 24 24" fill="none" xmlns="http://www.w3.org/2000/svg">
<path d="M5.98454 22.4996V9.97461H2.49707C2.08458 9.97461 1.74707 10.3121 1.74707 10.7246V21.7496C1.74707 22.1621 2.08458 22.4996 2.49707 22.4996H5.98454Z" fill="#006699"/>
<path d="M21.7278 11.1221C21.2104 10.3946 20.3929 9.97464 19.5004 9.97464H14.1454L14.1754 9.89966C14.8129 8.39215 15.1879 7.48463 15.1879 5.35466C15.1879 5.35466 15.1879 5.34715 15.1879 5.33964V5.33214C15.1879 4.01964 14.2354 2.87962 13.4104 2.03963C12.7504 1.37212 11.7604 1.31966 11.0479 1.91214C10.3729 2.47464 10.3729 3.26964 10.3729 3.89966C10.3729 4.07214 10.3729 4.24463 10.3579 4.42462L10.3054 5.16716C9.73535 6.47966 9.07535 7.13216 8.24286 7.94212C8.01036 8.17462 7.75539 8.42213 7.48535 8.69963V22.4996H14.6854C16.7704 22.4996 18.6754 21.2696 19.5303 19.3647L22.1028 13.6346C22.3878 12.7871 22.2529 11.8496 21.7278 11.1221Z" fill="#006699"/>
</svg>
