<svg width="24" height="24" viewBox="0 0 24 24" fill="none" xmlns="http://www.w3.org/2000/svg">
<path d="M5.98454 22.5001V9.9751H2.49707C2.08458 9.9751 1.74707 10.3126 1.74707 10.7251V21.7501C1.74707 22.1626 2.08458 22.5001 2.49707 22.5001H5.98454Z" fill="white"/>
<path d="M21.7278 11.1224C21.2104 10.3949 20.3929 9.97488 19.5004 9.97488H14.1454L14.1754 9.8999C14.8129 8.39239 15.1879 7.48488 15.1879 5.3549C15.1879 5.3549 15.1879 5.3474 15.1879 5.33989V5.33238C15.1879 4.01988 14.2354 2.87987 13.4104 2.03987C12.7504 1.37236 11.7604 1.3199 11.0479 1.91238C10.3729 2.47488 10.3729 3.26988 10.3729 3.8999C10.3729 4.07239 10.3729 4.24487 10.3579 4.42486L10.3054 5.1674C9.73535 6.4799 9.07535 7.1324 8.24286 7.94237C8.01036 8.17487 7.75539 8.42238 7.48535 8.69987V22.4999H14.6854C16.7704 22.4999 18.6754 21.2699 19.5303 19.3649L22.1028 13.6349C22.3878 12.7874 22.2529 11.8499 21.7278 11.1224Z" fill="white"/>
</svg>
