<?xml version="1.0" encoding="UTF-8" standalone="no"?><!DOCTYPE svg PUBLIC "-//W3C//DTD SVG 1.1//EN" "http://www.w3.org/Graphics/SVG/1.1/DTD/svg11.dtd"><!-- Generated by graphviz version 2.40.1 (20161225.0304)
 --><!-- Title: G Pages: 1 --><svg xmlns="http://www.w3.org/2000/svg" xmlns:xlink="http://www.w3.org/1999/xlink" width="3011pt" height="2882pt" viewBox="0.00 0.00 3011.42 2882.00">
<g id="graph0" class="graph" transform="scale(1 1) rotate(0) translate(4 2878)">
<title>G</title>
<polygon fill="#ffffff" stroke="transparent" points="-4,4 -4,-2878 3007.416,-2878 3007.416,4 -4,4"/>
<!-- node1 -->
<g id="node1" class="node">
<title>node1</title>
<path fill="#36648b" stroke="#36648b" d="M402.066,-2874C402.066,-2874 11.978,-2874 11.978,-2874 5.978,-2874 -.022,-2868 -.022,-2862 -.022,-2862 -.022,-2824 -.022,-2824 -.022,-2818 5.978,-2812 11.978,-2812 11.978,-2812 402.066,-2812 402.066,-2812 408.066,-2812 414.066,-2818 414.066,-2824 414.066,-2824 414.066,-2862 414.066,-2862 414.066,-2868 408.066,-2874 402.066,-2874"/>
<text text-anchor="middle" x="207.022" y="-2831" font-family="Arial" font-size="40.00" fill="#f5fffa">Who is the prescriber?</text>
</g>
<!-- node2 -->
<g id="node2" class="node">
<title>node2</title>
<path fill="#36648b" stroke="#36648b" d="M681.126,-2728C681.126,-2728 230.918,-2728 230.918,-2728 224.918,-2728 218.918,-2722 218.918,-2716 218.918,-2716 218.918,-2678 218.918,-2678 218.918,-2672 224.918,-2666 230.918,-2666 230.918,-2666 681.126,-2666 681.126,-2666 687.126,-2666 693.126,-2672 693.126,-2678 693.126,-2678 693.126,-2716 693.126,-2716 693.126,-2722 687.126,-2728 681.126,-2728"/>
<text text-anchor="middle" x="456.022" y="-2685" font-family="Arial" font-size="40.00" fill="#f5fffa">What is the patient's age?</text>
</g>
<!-- node1&#45;&gt;node2 -->
<g id="edge1" class="edge">
<title>node1-&gt;node2</title>
<path fill="none" stroke="#36648b" d="M260.1333,-2811.8584C299.3877,-2788.8418 352.9427,-2757.4401 394.135,-2733.2871"/>
<polygon fill="#36648b" stroke="#36648b" points="402.9923,-2728.0937 396.642,-2737.0338 398.6791,-2730.6228 394.3658,-2733.1519 394.3658,-2733.1519 394.3658,-2733.1519 398.6791,-2730.6228 392.0897,-2729.2699 402.9923,-2728.0937 402.9923,-2728.0937"/>
<text text-anchor="middle" x="810.216" y="-2758" font-family="Arial" font-size="40.00" fill="#000000">Endocrinologist or Weight Management Specialist</text>
</g>
<!-- notEligible -->
<g id="node15" class="node">
<title>notEligible</title>
<path fill="#ff0000" stroke="#ff0000" d="M1303.2541,-62C1303.2541,-62 1110.7899,-62 1110.7899,-62 1104.7899,-62 1098.7899,-56 1098.7899,-50 1098.7899,-50 1098.7899,-12 1098.7899,-12 1098.7899,-6 1104.7899,0 1110.7899,0 1110.7899,0 1303.2541,0 1303.2541,0 1309.2541,0 1315.2541,-6 1315.2541,-12 1315.2541,-12 1315.2541,-50 1315.2541,-50 1315.2541,-56 1309.2541,-62 1303.2541,-62"/>
<text text-anchor="middle" x="1207.022" y="-19" font-family="Arial" font-size="40.00" fill="#f5fffa">Not Eligible</text>
</g>
<!-- node1&#45;&gt;notEligible -->
<g id="edge2" class="edge">
<title>node1-&gt;notEligible</title>
<path fill="none" stroke="#36648b" d="M201.6051,-2811.7802C196.9634,-2782.2922 191.022,-2736.7784 191.022,-2697 191.022,-2697 191.022,-2697 191.022,-177 191.022,-71.3586 305.4288,-105.1938 408.022,-80 533.5714,-49.1688 898.6324,-37.2707 1088.7689,-33.0704"/>
<polygon fill="#36648b" stroke="#36648b" points="1098.8046,-32.8522 1088.9048,-37.5686 1093.8058,-32.9609 1088.807,-33.0696 1088.807,-33.0696 1088.807,-33.0696 1093.8058,-32.9609 1088.7092,-28.5707 1098.8046,-32.8522 1098.8046,-32.8522"/>
<text text-anchor="middle" x="241.032" y="-1041" font-family="Arial" font-size="40.00" fill="#000000">Other</text>
</g>
<!-- node3 -->
<g id="node3" class="node">
<title>node3</title>
<path fill="#36648b" stroke="#36648b" d="M848.2701,-2582C848.2701,-2582 411.7739,-2582 411.7739,-2582 405.7739,-2582 399.7739,-2576 399.7739,-2570 399.7739,-2570 399.7739,-2532 399.7739,-2532 399.7739,-2526 405.7739,-2520 411.7739,-2520 411.7739,-2520 848.2701,-2520 848.2701,-2520 854.2701,-2520 860.2701,-2526 860.2701,-2532 860.2701,-2532 860.2701,-2570 860.2701,-2570 860.2701,-2576 854.2701,-2582 848.2701,-2582"/>
<text text-anchor="middle" x="630.022" y="-2539" font-family="Arial" font-size="40.00" fill="#f5fffa">What is the starting BMI?</text>
</g>
<!-- node2&#45;&gt;node3 -->
<g id="edge3" class="edge">
<title>node2-&gt;node3</title>
<path fill="none" stroke="#36648b" d="M493.3494,-2665.6793C520.2757,-2643.086 556.7487,-2612.4822 585.2443,-2588.5721"/>
<polygon fill="#36648b" stroke="#36648b" points="593.0554,-2582.018 588.2874,-2591.893 589.2251,-2585.2319 585.3948,-2588.4458 585.3948,-2588.4458 585.3948,-2588.4458 589.2251,-2585.2319 582.5023,-2584.9985 593.0554,-2582.018 593.0554,-2582.018"/>
<text text-anchor="middle" x="664.6" y="-2612" font-family="Arial" font-size="40.00" fill="#000000">18 or older</text>
</g>
<!-- node2&#45;&gt;notEligible -->
<g id="edge4" class="edge">
<title>node2-&gt;notEligible</title>
<path fill="none" stroke="#36648b" d="M399.5079,-2665.8271C361.7697,-2640.4366 319.022,-2600.7055 319.022,-2551 319.022,-2551 319.022,-2551 319.022,-177 319.022,-99.9398 846.4321,-54.9415 1088.3354,-38.3554"/>
<polygon fill="#36648b" stroke="#36648b" points="1098.58,-37.6582 1088.9086,-42.8268 1093.5916,-37.9977 1088.6031,-38.3372 1088.6031,-38.3372 1088.6031,-38.3372 1093.5916,-37.9977 1088.2975,-33.8476 1098.58,-37.6582 1098.58,-37.6582"/>
<text text-anchor="middle" x="466.872" y="-968" font-family="Arial" font-size="40.00" fill="#000000">Younger than 18</text>
</g>
<!-- node4 -->
<g id="node4" class="node">
<title>node4</title>
<path fill="#36648b" stroke="#36648b" d="M1713.6421,-2436C1713.6421,-2436 670.4019,-2436 670.4019,-2436 664.4019,-2436 658.4019,-2430 658.4019,-2424 658.4019,-2424 658.4019,-1810 658.4019,-1810 658.4019,-1804 664.4019,-1798 670.4019,-1798 670.4019,-1798 1713.6421,-1798 1713.6421,-1798 1719.6421,-1798 1725.6421,-1804 1725.6421,-1810 1725.6421,-1810 1725.6421,-2424 1725.6421,-2424 1725.6421,-2430 1719.6421,-2436 1713.6421,-2436"/>
<text text-anchor="middle" x="1192.022" y="-2393" font-family="Arial" font-size="40.00" fill="#f5fffa">Does the patient have an additional diagnosis from this list?</text>
<text text-anchor="middle" x="1192.022" y="-2345" font-family="Arial" font-size="40.00" fill="#f5fffa"> cardiovascular disease,</text>
<text text-anchor="middle" x="1192.022" y="-2297" font-family="Arial" font-size="40.00" fill="#f5fffa"> stroke,</text>
<text text-anchor="middle" x="1192.022" y="-2249" font-family="Arial" font-size="40.00" fill="#f5fffa"> hypertension,</text>
<text text-anchor="middle" x="1192.022" y="-2201" font-family="Arial" font-size="40.00" fill="#f5fffa"> Type 2 DM,</text>
<text text-anchor="middle" x="1192.022" y="-2153" font-family="Arial" font-size="40.00" fill="#f5fffa"> CKD,</text>
<text text-anchor="middle" x="1192.022" y="-2105" font-family="Arial" font-size="40.00" fill="#f5fffa"> CHD,</text>
<text text-anchor="middle" x="1192.022" y="-2057" font-family="Arial" font-size="40.00" fill="#f5fffa"> obstructive sleep apnea,</text>
<text text-anchor="middle" x="1192.022" y="-2009" font-family="Arial" font-size="40.00" fill="#f5fffa"> polycystic ovarian syndrome,</text>
<text text-anchor="middle" x="1192.022" y="-1961" font-family="Arial" font-size="40.00" fill="#f5fffa"> dyslipidemia,</text>
<text text-anchor="middle" x="1192.022" y="-1913" font-family="Arial" font-size="40.00" fill="#f5fffa"> non-alcoholic fatty liver disease,</text>
<text text-anchor="middle" x="1192.022" y="-1865" font-family="Arial" font-size="40.00" fill="#f5fffa"> idiopathic intracranial hypertension,</text>
<text text-anchor="middle" x="1192.022" y="-1817" font-family="Arial" font-size="40.00" fill="#f5fffa"> osteoarthritis in weight-bearing joints</text>
</g>
<!-- node3&#45;&gt;node4 -->
<g id="edge5" class="edge">
<title>node3-&gt;node4</title>
<path fill="none" stroke="#36648b" d="M670.4397,-2519.7878C695.5096,-2500.4277 730.5665,-2473.3553 770.7756,-2442.3042"/>
<polygon fill="#36648b" stroke="#36648b" points="778.8846,-2436.042 773.7204,-2445.7158 774.9273,-2439.0981 770.9699,-2442.1541 770.9699,-2442.1541 770.9699,-2442.1541 774.9273,-2439.0981 768.2195,-2438.5925 778.8846,-2436.042 778.8846,-2436.042"/>
<text text-anchor="middle" x="935.884" y="-2466" font-family="Arial" font-size="40.00" fill="#000000">30 kg/m^2 or greater</text>
</g>
<!-- node3&#45;&gt;notEligible -->
<g id="edge6" class="edge">
<title>node3-&gt;notEligible</title>
<path fill="none" stroke="#36648b" d="M630.022,-2519.9509C630.022,-2448.7222 630.022,-2268.0712 630.022,-2117 630.022,-2117 630.022,-2117 630.022,-177 630.022,-83.2693 919.797,-49.0638 1088.6387,-37.0888"/>
<polygon fill="#36648b" stroke="#36648b" points="1098.8313,-36.3824 1089.1664,-41.5631 1093.8433,-36.7282 1088.8553,-37.0739 1088.8553,-37.0739 1088.8553,-37.0739 1093.8433,-36.7282 1088.5441,-32.5847 1098.8313,-36.3824 1098.8313,-36.3824"/>
<text text-anchor="middle" x="813.91" y="-895" font-family="Arial" font-size="40.00" fill="#000000">Less than 30 kg/m^2</text>
</g>
<!-- node5 -->
<g id="node5" class="node">
<title>node5</title>
<path fill="#36648b" stroke="#36648b" d="M1720.1061,-1714C1720.1061,-1714 1065.9379,-1714 1065.9379,-1714 1059.9379,-1714 1053.9379,-1708 1053.9379,-1702 1053.9379,-1702 1053.9379,-1664 1053.9379,-1664 1053.9379,-1658 1059.9379,-1652 1065.9379,-1652 1065.9379,-1652 1720.1061,-1652 1720.1061,-1652 1726.1061,-1652 1732.1061,-1658 1732.1061,-1664 1732.1061,-1664 1732.1061,-1702 1732.1061,-1702 1732.1061,-1708 1726.1061,-1714 1720.1061,-1714"/>
<text text-anchor="middle" x="1393.022" y="-1671" font-family="Arial" font-size="40.00" fill="#f5fffa">Is the starting weight in your records?</text>
</g>
<!-- node4&#45;&gt;node5 -->
<g id="edge7" class="edge">
<title>node4-&gt;node5</title>
<path fill="none" stroke="#36648b" d="M1339.8171,-1797.8802C1353.1519,-1769.0877 1365.0477,-1743.4023 1374.1913,-1723.6594"/>
<polygon fill="#36648b" stroke="#36648b" points="1378.4531,-1714.4572 1378.3339,-1725.4224 1376.3518,-1718.9942 1374.2506,-1723.5312 1374.2506,-1723.5312 1374.2506,-1723.5312 1376.3518,-1718.9942 1370.1672,-1721.6401 1378.4531,-1714.4572 1378.4531,-1714.4572"/>
<text text-anchor="middle" x="1403.478" y="-1744" font-family="Arial" font-size="40.00" fill="#000000">Yes</text>
</g>
<!-- node4&#45;&gt;notEligible -->
<g id="edge8" class="edge">
<title>node4-&gt;notEligible</title>
<path fill="none" stroke="#36648b" d="M1040.8995,-1797.9313C1031.677,-1759.9481 1026.022,-1721.1169 1026.022,-1683 1026.022,-1683 1026.022,-1683 1026.022,-177 1026.022,-126.3879 1069.427,-90.3336 1113.726,-66.7163"/>
<polygon fill="#36648b" stroke="#36648b" points="1122.8806,-62.0114 1116.0434,-70.5849 1118.4335,-64.297 1113.9865,-66.5825 1113.9865,-66.5825 1113.9865,-66.5825 1118.4335,-64.297 1111.9295,-62.5801 1122.8806,-62.0114 1122.8806,-62.0114"/>
<text text-anchor="middle" x="1051.578" y="-822" font-family="Arial" font-size="40.00" fill="#000000">No</text>
</g>
<!-- node6 -->
<g id="node6" class="node">
<title>node6</title>
<path fill="#36648b" stroke="#36648b" d="M2077.786,-1568C2077.786,-1568 1132.258,-1568 1132.258,-1568 1126.258,-1568 1120.258,-1562 1120.258,-1556 1120.258,-1556 1120.258,-1518 1120.258,-1518 1120.258,-1512 1126.258,-1506 1132.258,-1506 1132.258,-1506 2077.786,-1506 2077.786,-1506 2083.786,-1506 2089.786,-1512 2089.786,-1518 2089.786,-1518 2089.786,-1556 2089.786,-1556 2089.786,-1562 2083.786,-1568 2077.786,-1568"/>
<text text-anchor="middle" x="1605.022" y="-1525" font-family="Arial" font-size="40.00" fill="#f5fffa">Patient enrolled in KP-approved weight loss program?</text>
</g>
<!-- node5&#45;&gt;node6 -->
<g id="edge9" class="edge">
<title>node5-&gt;node6</title>
<path fill="none" stroke="#36648b" d="M1438.2413,-1651.8584C1471.3123,-1629.0831 1516.3052,-1598.0974 1551.2248,-1574.049"/>
<polygon fill="#36648b" stroke="#36648b" points="1559.8722,-1568.0937 1554.1887,-1577.4718 1555.7543,-1570.9297 1551.6363,-1573.7656 1551.6363,-1573.7656 1551.6363,-1573.7656 1555.7543,-1570.9297 1549.0839,-1570.0595 1559.8722,-1568.0937 1559.8722,-1568.0937"/>
<text text-anchor="middle" x="1565.478" y="-1598" font-family="Arial" font-size="40.00" fill="#000000">Yes</text>
</g>
<!-- node5&#45;&gt;notEligible -->
<g id="edge10" class="edge">
<title>node5-&gt;notEligible</title>
<path fill="none" stroke="#36648b" d="M1283.5026,-1651.8705C1197.4393,-1624.0508 1092.022,-1580.9955 1092.022,-1537 1092.022,-1537 1092.022,-1537 1092.022,-907 1092.022,-809.5652 1082.022,-785.4348 1082.022,-688 1082.022,-688 1082.022,-688 1082.022,-177 1082.022,-132.3962 1116.1028,-94.5663 1148.6735,-68.5972"/>
<polygon fill="#36648b" stroke="#36648b" points="1156.9,-62.2536 1151.7289,-71.9237 1152.9405,-65.3069 1148.981,-68.3601 1148.981,-68.3601 1148.981,-68.3601 1152.9405,-65.3069 1146.233,-64.7966 1156.9,-62.2536 1156.9,-62.2536"/>
<text text-anchor="middle" x="1112.578" y="-749" font-family="Arial" font-size="40.00" fill="#000000">No</text>
</g>
<!-- node7 -->
<g id="node7" class="node">
<title>node7</title>
<path fill="#36648b" stroke="#36648b" d="M2486.814,-1422C2486.814,-1422 1201.23,-1422 1201.23,-1422 1195.23,-1422 1189.23,-1416 1189.23,-1410 1189.23,-1410 1189.23,-1180 1189.23,-1180 1189.23,-1174 1195.23,-1168 1201.23,-1168 1201.23,-1168 2486.814,-1168 2486.814,-1168 2492.814,-1168 2498.814,-1174 2498.814,-1180 2498.814,-1180 2498.814,-1410 2498.814,-1410 2498.814,-1416 2492.814,-1422 2486.814,-1422"/>
<text text-anchor="middle" x="1844.022" y="-1379" font-family="Arial" font-size="40.00" fill="#f5fffa">Failure to lose 5% weight after 3-month trial of the following medications?</text>
<text text-anchor="middle" x="1844.022" y="-1331" font-family="Arial" font-size="40.00" fill="#f5fffa"> (Xenical,</text>
<text text-anchor="middle" x="1844.022" y="-1283" font-family="Arial" font-size="40.00" fill="#f5fffa"> Contrave,</text>
<text text-anchor="middle" x="1844.022" y="-1235" font-family="Arial" font-size="40.00" fill="#f5fffa"> Qsymia,</text>
<text text-anchor="middle" x="1844.022" y="-1187" font-family="Arial" font-size="40.00" fill="#f5fffa"> Saxenda)</text>
</g>
<!-- node6&#45;&gt;node7 -->
<g id="edge11" class="edge">
<title>node6-&gt;node7</title>
<path fill="none" stroke="#36648b" d="M1635.7778,-1505.8582C1655.5941,-1485.7931 1682.8693,-1458.1755 1711.1561,-1429.5336"/>
<polygon fill="#36648b" stroke="#36648b" points="1718.3656,-1422.2337 1714.5405,-1432.5108 1714.8521,-1425.7912 1711.3387,-1429.3488 1711.3387,-1429.3488 1711.3387,-1429.3488 1714.8521,-1425.7912 1708.1369,-1426.1867 1718.3656,-1422.2337 1718.3656,-1422.2337"/>
<text text-anchor="middle" x="1731.478" y="-1452" font-family="Arial" font-size="40.00" fill="#000000">Yes</text>
</g>
<!-- node6&#45;&gt;notEligible -->
<g id="edge12" class="edge">
<title>node6-&gt;notEligible</title>
<path fill="none" stroke="#36648b" d="M1412.3169,-1505.9751C1315.5028,-1486.3847 1212.0467,-1457.9642 1180.022,-1422 1142.0676,-1379.3767 1161.022,-1352.0726 1161.022,-1295 1161.022,-1295 1161.022,-1295 1161.022,-177 1161.022,-139.9915 1174.6338,-100.0436 1187.0485,-71.3055"/>
<polygon fill="#36648b" stroke="#36648b" points="1191.1914,-62.0097 1191.2309,-72.9755 1189.156,-66.5766 1187.1206,-71.1436 1187.1206,-71.1436 1187.1206,-71.1436 1189.156,-66.5766 1183.0103,-69.3117 1191.1914,-62.0097 1191.1914,-62.0097"/>
<text text-anchor="middle" x="1186.578" y="-676" font-family="Arial" font-size="40.00" fill="#000000">No</text>
</g>
<!-- node8 -->
<g id="node8" class="node">
<title>node8</title>
<path fill="#36648b" stroke="#36648b" d="M2225.5541,-1084C2225.5541,-1084 1442.4899,-1084 1442.4899,-1084 1436.4899,-1084 1430.4899,-1078 1430.4899,-1072 1430.4899,-1072 1430.4899,-1034 1430.4899,-1034 1430.4899,-1028 1436.4899,-1022 1442.4899,-1022 1442.4899,-1022 2225.5541,-1022 2225.5541,-1022 2231.5541,-1022 2237.5541,-1028 2237.5541,-1034 2237.5541,-1034 2237.5541,-1072 2237.5541,-1072 2237.5541,-1078 2231.5541,-1084 2225.5541,-1084"/>
<text text-anchor="middle" x="1834.022" y="-1041" font-family="Arial" font-size="40.00" fill="#f5fffa">Wegovy used with another weight loss drug?</text>
</g>
<!-- node7&#45;&gt;node8 -->
<g id="edge13" class="edge">
<title>node7-&gt;node8</title>
<path fill="none" stroke="#36648b" d="M1838.7731,-1167.9758C1837.6728,-1141.3497 1836.5887,-1115.1134 1835.7345,-1094.4415"/>
<polygon fill="#36648b" stroke="#36648b" points="1835.3098,-1084.166 1840.219,-1093.9716 1835.5163,-1089.1617 1835.7228,-1094.1574 1835.7228,-1094.1574 1835.7228,-1094.1574 1835.5163,-1089.1617 1831.2267,-1094.3433 1835.3098,-1084.166 1835.3098,-1084.166"/>
<text text-anchor="middle" x="1872.478" y="-1114" font-family="Arial" font-size="40.00" fill="#000000">Yes</text>
</g>
<!-- node7&#45;&gt;notEligible -->
<g id="edge14" class="edge">
<title>node7-&gt;notEligible</title>
<path fill="none" stroke="#36648b" d="M1354.8648,-1167.8515C1279.9795,-1134.7858 1227.022,-1096.1485 1227.022,-1053 1227.022,-1053 1227.022,-1053 1227.022,-761 1227.022,-717.4422 1223.1785,-706.3572 1213.022,-664 1211.052,-655.7843 1208.2866,-654.3357 1206.91,-646 1202.4201,-618.8127 1206.8733,-611.5555 1206.91,-584 1206.9349,-565.3333 1207.022,-560.6667 1207.022,-542 1207.022,-542 1207.022,-542 1207.022,-177 1207.022,-141.6703 1207.022,-101.5317 1207.022,-72.2939"/>
<polygon fill="#36648b" stroke="#36648b" points="1207.022,-62.0444 1211.5221,-72.0444 1207.022,-67.0444 1207.0221,-72.0444 1207.0221,-72.0444 1207.0221,-72.0444 1207.022,-67.0444 1202.5221,-72.0445 1207.022,-62.0444 1207.022,-62.0444"/>
<text text-anchor="middle" x="1232.578" y="-603" font-family="Arial" font-size="40.00" fill="#000000">No</text>
</g>
<!-- node9 -->
<g id="node9" class="node">
<title>node9</title>
<path fill="#36648b" stroke="#36648b" d="M2333.518,-938C2333.518,-938 1334.526,-938 1334.526,-938 1328.526,-938 1322.526,-932 1322.526,-926 1322.526,-926 1322.526,-888 1322.526,-888 1322.526,-882 1328.526,-876 1334.526,-876 1334.526,-876 2333.518,-876 2333.518,-876 2339.518,-876 2345.518,-882 2345.518,-888 2345.518,-888 2345.518,-926 2345.518,-926 2345.518,-932 2339.518,-938 2333.518,-938"/>
<text text-anchor="middle" x="1834.022" y="-895" font-family="Arial" font-size="40.00" fill="#f5fffa">Initial Wegovy prescription is 30-day supply with 2 refills?</text>
</g>
<!-- node8&#45;&gt;node9 -->
<g id="edge15" class="edge">
<title>node8-&gt;node9</title>
<path fill="none" stroke="#36648b" d="M1834.022,-1021.6793C1834.022,-1000.2446 1834.022,-971.5999 1834.022,-948.3014"/>
<polygon fill="#36648b" stroke="#36648b" points="1834.022,-938.018 1838.5221,-948.0179 1834.022,-943.018 1834.0221,-948.018 1834.0221,-948.018 1834.0221,-948.018 1834.022,-943.018 1829.5221,-948.018 1834.022,-938.018 1834.022,-938.018"/>
<text text-anchor="middle" x="1859.578" y="-968" font-family="Arial" font-size="40.00" fill="#000000">No</text>
</g>
<!-- node8&#45;&gt;notEligible -->
<g id="edge16" class="edge">
<title>node8-&gt;notEligible</title>
<path fill="none" stroke="#36648b" d="M1527.1802,-1021.967C1401.9591,-1000.4971 1286.022,-964.9669 1286.022,-907 1286.022,-907 1286.022,-907 1286.022,-688 1286.022,-640.563 1284.3689,-625.8436 1262.022,-584 1256.8508,-574.3172 1249.1569,-576.2039 1245.11,-566 1229.2163,-525.9256 1245.022,-512.1111 1245.022,-469 1245.022,-469 1245.022,-469 1245.022,-177 1245.022,-140.5675 1233.803,-100.622 1223.5568,-71.7375"/>
<polygon fill="#36648b" stroke="#36648b" points="1219.9932,-62.0058 1227.6574,-69.8486 1221.7125,-66.7009 1223.4318,-71.396 1223.4318,-71.396 1223.4318,-71.396 1221.7125,-66.7009 1219.2062,-72.9434 1219.9932,-62.0058 1219.9932,-62.0058"/>
<text text-anchor="middle" x="1280.478" y="-530" font-family="Arial" font-size="40.00" fill="#000000">Yes</text>
</g>
<!-- node10 -->
<g id="node10" class="node">
<title>node10</title>
<path fill="#36648b" stroke="#36648b" d="M2171.7821,-792C2171.7821,-792 1630.2619,-792 1630.2619,-792 1624.2619,-792 1618.2619,-786 1618.2619,-780 1618.2619,-780 1618.2619,-742 1618.2619,-742 1618.2619,-736 1624.2619,-730 1630.2619,-730 1630.2619,-730 2171.7821,-730 2171.7821,-730 2177.7821,-730 2183.7821,-736 2183.7821,-742 2183.7821,-742 2183.7821,-780 2183.7821,-780 2183.7821,-786 2177.7821,-792 2171.7821,-792"/>
<text text-anchor="middle" x="1901.022" y="-749" font-family="Arial" font-size="40.00" fill="#f5fffa">Does patient have Type 2 DM?</text>
</g>
<!-- node9&#45;&gt;node10 -->
<g id="edge17" class="edge">
<title>node9-&gt;node10</title>
<path fill="none" stroke="#36648b" d="M1848.3952,-875.6793C1858.3646,-853.9549 1871.7327,-824.8244 1882.5007,-801.3598"/>
<polygon fill="#36648b" stroke="#36648b" points="1886.7877,-792.018 1886.7067,-802.9836 1884.7023,-796.5623 1882.6168,-801.1067 1882.6168,-801.1067 1882.6168,-801.1067 1884.7023,-796.5623 1878.5269,-799.2298 1886.7877,-792.018 1886.7877,-792.018"/>
<text text-anchor="middle" x="1912.478" y="-822" font-family="Arial" font-size="40.00" fill="#000000">Yes</text>
</g>
<!-- node9&#45;&gt;notEligible -->
<g id="edge18" class="edge">
<title>node9-&gt;notEligible</title>
<path fill="none" stroke="#36648b" d="M1754.1922,-875.9157C1603.2579,-811.3111 1291.022,-647.2955 1291.022,-396 1291.022,-396 1291.022,-396 1291.022,-177 1291.022,-131.6035 1283.3998,-118.2957 1259.022,-80 1256.7739,-76.4684 1254.2147,-73.0162 1251.4656,-69.6841"/>
<polygon fill="#36648b" stroke="#36648b" points="1244.7633,-62.1458 1254.7708,-66.6291 1248.0856,-65.8824 1251.4078,-69.6191 1251.4078,-69.6191 1251.4078,-69.6191 1248.0856,-65.8824 1248.0448,-72.6091 1244.7633,-62.1458 1244.7633,-62.1458"/>
<text text-anchor="middle" x="1334.578" y="-457" font-family="Arial" font-size="40.00" fill="#000000">No</text>
</g>
<!-- node11 -->
<g id="node11" class="node">
<title>node11</title>
<path fill="#36648b" stroke="#36648b" d="M2290.518,-646C2290.518,-646 1511.526,-646 1511.526,-646 1505.526,-646 1499.526,-640 1499.526,-634 1499.526,-634 1499.526,-596 1499.526,-596 1499.526,-590 1505.526,-584 1511.526,-584 1511.526,-584 2290.518,-584 2290.518,-584 2296.518,-584 2302.518,-590 2302.518,-596 2302.518,-596 2302.518,-634 2302.518,-634 2302.518,-640 2296.518,-646 2290.518,-646"/>
<text text-anchor="middle" x="1901.022" y="-603" font-family="Arial" font-size="40.00" fill="#f5fffa">Following KP National Adult DM Guidelines?</text>
</g>
<!-- node10&#45;&gt;node11 -->
<g id="edge19" class="edge">
<title>node10-&gt;node11</title>
<path fill="none" stroke="#36648b" d="M1901.022,-729.6793C1901.022,-708.2446 1901.022,-679.5999 1901.022,-656.3014"/>
<polygon fill="#36648b" stroke="#36648b" points="1901.022,-646.018 1905.5221,-656.0179 1901.022,-651.018 1901.0221,-656.018 1901.0221,-656.018 1901.0221,-656.018 1901.022,-651.018 1896.5221,-656.018 1901.022,-646.018 1901.022,-646.018"/>
<text text-anchor="middle" x="1935.478" y="-676" font-family="Arial" font-size="40.00" fill="#000000">Yes</text>
</g>
<!-- node13 -->
<g id="node13" class="node">
<title>node13</title>
<path fill="#36648b" stroke="#36648b" d="M2705.41,-354C2705.41,-354 1668.634,-354 1668.634,-354 1662.634,-354 1656.634,-348 1656.634,-342 1656.634,-342 1656.634,-304 1656.634,-304 1656.634,-298 1662.634,-292 1668.634,-292 1668.634,-292 2705.41,-292 2705.41,-292 2711.41,-292 2717.41,-298 2717.41,-304 2717.41,-304 2717.41,-342 2717.41,-342 2717.41,-348 2711.41,-354 2705.41,-354"/>
<text text-anchor="middle" x="2187.022" y="-311" font-family="Arial" font-size="40.00" fill="#f5fffa">Does the patient continue to meet the initial review criteria?</text>
</g>
<!-- node10&#45;&gt;node13 -->
<g id="edge20" class="edge">
<title>node10-&gt;node13</title>
<path fill="none" stroke="#36648b" d="M2050.7081,-729.9825C2245.4616,-686.1011 2568.5597,-600.0073 2633.022,-500 2647.951,-476.839 2649.8999,-459.7818 2633.022,-438 2604.7581,-401.5239 2511.326,-374.563 2417.2318,-355.9516"/>
<polygon fill="#36648b" stroke="#36648b" points="2407.2424,-354.007 2417.918,-351.5008 2412.1502,-354.9625 2417.0581,-355.9179 2417.0581,-355.9179 2417.0581,-355.9179 2412.1502,-354.9625 2416.1982,-360.335 2407.2424,-354.007 2407.2424,-354.007"/>
<text text-anchor="middle" x="2642.578" y="-530" font-family="Arial" font-size="40.00" fill="#000000">No</text>
</g>
<!-- node12 -->
<g id="node12" class="node">
<title>node12</title>
<path fill="#36648b" stroke="#36648b" d="M2611.9141,-500C2611.9141,-500 1410.1299,-500 1410.1299,-500 1404.1299,-500 1398.1299,-494 1398.1299,-488 1398.1299,-488 1398.1299,-450 1398.1299,-450 1398.1299,-444 1404.1299,-438 1410.1299,-438 1410.1299,-438 2611.9141,-438 2611.9141,-438 2617.9141,-438 2623.9141,-444 2623.9141,-450 2623.9141,-450 2623.9141,-488 2623.9141,-488 2623.9141,-494 2617.9141,-500 2611.9141,-500"/>
<text text-anchor="middle" x="2011.022" y="-457" font-family="Arial" font-size="40.00" fill="#f5fffa">Failed to reach goal A1c after 6-month trial of Victoza and Ozempic?</text>
</g>
<!-- node11&#45;&gt;node12 -->
<g id="edge21" class="edge">
<title>node11-&gt;node12</title>
<path fill="none" stroke="#36648b" d="M1924.6198,-583.6793C1941.2784,-561.5687 1963.7172,-531.7864 1981.5527,-508.1138"/>
<polygon fill="#36648b" stroke="#36648b" points="1987.6523,-500.018 1985.2289,-510.7127 1984.6435,-504.0114 1981.6348,-508.0048 1981.6348,-508.0048 1981.6348,-508.0048 1984.6435,-504.0114 1978.0407,-505.2969 1987.6523,-500.018 1987.6523,-500.018"/>
<text text-anchor="middle" x="2007.478" y="-530" font-family="Arial" font-size="40.00" fill="#000000">Yes</text>
</g>
<!-- node11&#45;&gt;notEligible -->
<g id="edge22" class="edge">
<title>node11-&gt;notEligible</title>
<path fill="none" stroke="#36648b" d="M1611.8262,-583.9382C1487.4272,-562.2533 1370.022,-526.5445 1370.022,-469 1370.022,-469 1370.022,-469 1370.022,-177 1370.022,-128.0543 1328.738,-91.3957 1287.7236,-67.0536"/>
<polygon fill="#36648b" stroke="#36648b" points="1278.9906,-62.0462 1289.9042,-63.1166 1283.3282,-64.5333 1287.6658,-67.0204 1287.6658,-67.0204 1287.6658,-67.0204 1283.3282,-64.5333 1285.4273,-70.9242 1278.9906,-62.0462 1278.9906,-62.0462"/>
<text text-anchor="middle" x="1395.578" y="-311" font-family="Arial" font-size="40.00" fill="#000000">No</text>
</g>
<!-- node12&#45;&gt;node13 -->
<g id="edge23" class="edge">
<title>node12-&gt;node13</title>
<path fill="none" stroke="#36648b" d="M2048.7784,-437.6793C2076.0143,-415.086 2112.9065,-384.4822 2141.7296,-360.5721"/>
<polygon fill="#36648b" stroke="#36648b" points="2149.6305,-354.018 2144.807,-363.8661 2145.7822,-357.2103 2141.9339,-360.4026 2141.9339,-360.4026 2141.9339,-360.4026 2145.7822,-357.2103 2139.0608,-356.9392 2149.6305,-354.018 2149.6305,-354.018"/>
<text text-anchor="middle" x="2160.478" y="-384" font-family="Arial" font-size="40.00" fill="#000000">Yes</text>
</g>
<!-- node12&#45;&gt;notEligible -->
<g id="edge24" class="edge">
<title>node12-&gt;notEligible</title>
<path fill="none" stroke="#36648b" d="M1839.1636,-437.9828C1731.6174,-410.7898 1596.5671,-361.4012 1504.91,-274 1431.3868,-203.8907 1465.3989,-140.8175 1384.022,-80 1366.6356,-67.0062 1345.98,-57.4581 1325.0233,-50.4419"/>
<polygon fill="#36648b" stroke="#36648b" points="1315.384,-47.3931 1326.2755,-46.1183 1320.1512,-48.9009 1324.9185,-50.4088 1324.9185,-50.4088 1324.9185,-50.4088 1320.1512,-48.9009 1323.5614,-54.6993 1315.384,-47.3931 1315.384,-47.3931"/>
<text text-anchor="middle" x="1530.578" y="-238" font-family="Arial" font-size="40.00" fill="#000000">No</text>
</g>
<!-- node14 -->
<g id="node14" class="node">
<title>node14</title>
<path fill="#36648b" stroke="#36648b" d="M2991.31,-208C2991.31,-208 1596.734,-208 1596.734,-208 1590.734,-208 1584.734,-202 1584.734,-196 1584.734,-196 1584.734,-158 1584.734,-158 1584.734,-152 1590.734,-146 1596.734,-146 1596.734,-146 2991.31,-146 2991.31,-146 2997.31,-146 3003.31,-152 3003.31,-158 3003.31,-158 3003.31,-196 3003.31,-196 3003.31,-202 2997.31,-208 2991.31,-208"/>
<text text-anchor="middle" x="2294.022" y="-165" font-family="Arial" font-size="40.00" fill="#f5fffa">What is the percentage of weight loss from starting weight in the last 3 months?</text>
</g>
<!-- node13&#45;&gt;node14 -->
<g id="edge25" class="edge">
<title>node13-&gt;node14</title>
<path fill="none" stroke="#36648b" d="M2209.9762,-291.6793C2226.1805,-269.5687 2248.0073,-239.7864 2265.3564,-216.1138"/>
<polygon fill="#36648b" stroke="#36648b" points="2271.2897,-208.018 2269.008,-218.7439 2268.334,-212.0509 2265.3784,-216.0838 2265.3784,-216.0838 2265.3784,-216.0838 2268.334,-212.0509 2261.7488,-213.4237 2271.2897,-208.018 2271.2897,-208.018"/>
<text text-anchor="middle" x="2291.478" y="-238" font-family="Arial" font-size="40.00" fill="#000000">Yes</text>
</g>
<!-- node13&#45;&gt;notEligible -->
<g id="edge26" class="edge">
<title>node13-&gt;notEligible</title>
<path fill="none" stroke="#36648b" d="M1842.8366,-291.9999C1709.7307,-274.1518 1576.956,-247.2547 1524.91,-208 1474.461,-169.9498 1513.1429,-118.4813 1463.022,-80 1441.0556,-63.1349 1381.5714,-51.1954 1325.4677,-43.3269"/>
<polygon fill="#36648b" stroke="#36648b" points="1315.4075,-41.9534 1325.9243,-38.8475 1320.3615,-42.6298 1325.3155,-43.3062 1325.3155,-43.3062 1325.3155,-43.3062 1320.3615,-42.6298 1324.7068,-47.7648 1315.4075,-41.9534 1315.4075,-41.9534"/>
<text text-anchor="middle" x="1550.578" y="-165" font-family="Arial" font-size="40.00" fill="#000000">No</text>
</g>
<!-- node14&#45;&gt;notEligible -->
<g id="edge28" class="edge">
<title>node14-&gt;notEligible</title>
<path fill="none" stroke="#36648b" d="M2063.1648,-145.9925C1837.0954,-115.6281 1501.6705,-70.5756 1325.282,-46.8841"/>
<polygon fill="#36648b" stroke="#36648b" points="1315.1913,-45.5287 1325.7014,-42.4 1320.1468,-46.1944 1325.1023,-46.86 1325.1023,-46.86 1325.1023,-46.86 1320.1468,-46.1944 1324.5032,-51.3199 1315.1913,-45.5287 1315.1913,-45.5287"/>
<text text-anchor="middle" x="2044.3" y="-92" font-family="Arial" font-size="40.00" fill="#000000">Less than 10%</text>
</g>
<!-- eligible -->
<g id="node16" class="node">
<title>eligible</title>
<path fill="#006400" stroke="#006400" d="M2353.41,-62C2353.41,-62 2234.634,-62 2234.634,-62 2228.634,-62 2222.634,-56 2222.634,-50 2222.634,-50 2222.634,-12 2222.634,-12 2222.634,-6 2228.634,0 2234.634,0 2234.634,0 2353.41,0 2353.41,0 2359.41,0 2365.41,-6 2365.41,-12 2365.41,-12 2365.41,-50 2365.41,-50 2365.41,-56 2359.41,-62 2353.41,-62"/>
<text text-anchor="middle" x="2294.022" y="-19" font-family="Arial" font-size="40.00" fill="#f5fffa">Eligible</text>
</g>
<!-- node14&#45;&gt;eligible -->
<g id="edge27" class="edge">
<title>node14-&gt;eligible</title>
<path fill="none" stroke="#36648b" d="M2294.022,-145.6793C2294.022,-124.2446 2294.022,-95.5999 2294.022,-72.3014"/>
<polygon fill="#36648b" stroke="#36648b" points="2294.022,-62.018 2298.5221,-72.0179 2294.022,-67.018 2294.0221,-72.018 2294.0221,-72.018 2294.0221,-72.018 2294.022,-67.018 2289.5221,-72.018 2294.022,-62.018 2294.022,-62.018"/>
<text text-anchor="middle" x="2406.28" y="-92" font-family="Arial" font-size="40.00" fill="#000000">At least 10%</text>
</g>
</g>
</svg>