<?xml version="1.0" encoding="UTF-8" standalone="no"?><!DOCTYPE svg PUBLIC "-//W3C//DTD SVG 1.1//EN" "http://www.w3.org/Graphics/SVG/1.1/DTD/svg11.dtd"><!-- Generated by graphviz version 2.40.1 (20161225.0304)
 --><!-- Title: G Pages: 1 --><svg xmlns="http://www.w3.org/2000/svg" xmlns:xlink="http://www.w3.org/1999/xlink" width="2565pt" height="1530pt" viewBox="0.00 0.00 2565.29 1530.00">
<g id="graph0" class="graph" transform="scale(1 1) rotate(0) translate(4 1526)">
<title>G</title>
<polygon fill="#ffffff" stroke="transparent" points="-4,4 -4,-1526 2561.292,-1526 2561.292,4 -4,4"/>
<!-- q1 -->
<g id="node1" class="node">
<title>q1</title>
<path fill="#36648b" stroke="#36648b" d="M2545.272,-1522C2545.272,-1522 1337.352,-1522 1337.352,-1522 1331.352,-1522 1325.352,-1516 1325.352,-1510 1325.352,-1510 1325.352,-1472 1325.352,-1472 1325.352,-1466 1331.352,-1460 1337.352,-1460 1337.352,-1460 2545.272,-1460 2545.272,-1460 2551.272,-1460 2557.272,-1466 2557.272,-1472 2557.272,-1472 2557.272,-1510 2557.272,-1510 2557.272,-1516 2551.272,-1522 2545.272,-1522"/>
<text text-anchor="middle" x="1941.312" y="-1479" font-family="Arial" font-size="40.00" fill="#f5fffa">Prescription from Endocrinologist or Weight Management Specialist?</text>
</g>
<!-- q2 -->
<g id="node2" class="node">
<title>q2</title>
<path fill="#36648b" stroke="#36648b" d="M2061.8722,-1376C2061.8722,-1376 1498.7518,-1376 1498.7518,-1376 1492.7518,-1376 1486.7518,-1370 1486.7518,-1364 1486.7518,-1364 1486.7518,-1326 1486.7518,-1326 1486.7518,-1320 1492.7518,-1314 1498.7518,-1314 1498.7518,-1314 2061.8722,-1314 2061.8722,-1314 2067.8722,-1314 2073.8722,-1320 2073.8722,-1326 2073.8722,-1326 2073.8722,-1364 2073.8722,-1364 2073.8722,-1370 2067.8722,-1376 2061.8722,-1376"/>
<text text-anchor="middle" x="1780.312" y="-1333" font-family="Arial" font-size="40.00" fill="#f5fffa">Patient at least 18 years of age?</text>
</g>
<!-- q1&#45;&gt;q2 -->
<g id="edge1" class="edge">
<title>q1-&gt;q2</title>
<path fill="none" stroke="#36648b" d="M1906.7735,-1459.6793C1881.9653,-1437.1825 1848.3991,-1406.7436 1822.0827,-1382.879"/>
<polygon fill="#36648b" stroke="#36648b" points="1814.5167,-1376.018 1824.9474,-1379.4021 1818.2206,-1379.3768 1821.9245,-1382.7356 1821.9245,-1382.7356 1821.9245,-1382.7356 1818.2206,-1379.3768 1818.9016,-1386.069 1814.5167,-1376.018 1814.5167,-1376.018"/>
<text text-anchor="middle" x="1918.768" y="-1406" font-family="Arial" font-size="40.00" fill="#000000">Yes</text>
</g>
<!-- ineligible -->
<g id="node11" class="node">
<title>ineligible</title>
<path fill="#ff0000" stroke="#ff0000" d="M1863.1121,-62C1863.1121,-62 1715.5119,-62 1715.5119,-62 1709.5119,-62 1703.5119,-56 1703.5119,-50 1703.5119,-50 1703.5119,-12 1703.5119,-12 1703.5119,-6 1709.5119,0 1715.5119,0 1715.5119,0 1863.1121,0 1863.1121,0 1869.1121,0 1875.1121,-6 1875.1121,-12 1875.1121,-12 1875.1121,-50 1875.1121,-50 1875.1121,-56 1869.1121,-62 1863.1121,-62"/>
<text text-anchor="middle" x="1789.312" y="-19" font-family="Arial" font-size="40.00" fill="#f5fffa">Ineligible</text>
</g>
<!-- q1&#45;&gt;ineligible -->
<g id="edge2" class="edge">
<title>q1-&gt;ineligible</title>
<path fill="none" stroke="#36648b" d="M2011.9289,-1459.9905C2055.1876,-1435.7068 2102.312,-1397.2599 2102.312,-1345 2102.312,-1345 2102.312,-1345 2102.312,-177 2102.312,-116.9671 2060.6875,-109.3387 2008.312,-80 1970.9442,-59.068 1925.2845,-47.0775 1885.3454,-40.2092"/>
<polygon fill="#36648b" stroke="#36648b" points="1875.3231,-38.571 1885.9181,-35.7432 1880.2577,-39.3776 1885.1922,-40.1842 1885.1922,-40.1842 1885.1922,-40.1842 1880.2577,-39.3776 1884.4662,-44.6253 1875.3231,-38.571 1875.3231,-38.571"/>
<text text-anchor="middle" x="2127.868" y="-749" font-family="Arial" font-size="40.00" fill="#000000">No</text>
</g>
<!-- q3 -->
<g id="node3" class="node">
<title>q3</title>
<path fill="#36648b" stroke="#36648b" d="M1996.14,-1230C1996.14,-1230 610.484,-1230 610.484,-1230 604.484,-1230 598.484,-1224 598.484,-1218 598.484,-1218 598.484,-1180 598.484,-1180 598.484,-1174 604.484,-1168 610.484,-1168 610.484,-1168 1996.14,-1168 1996.14,-1168 2002.14,-1168 2008.14,-1174 2008.14,-1180 2008.14,-1180 2008.14,-1218 2008.14,-1218 2008.14,-1224 2002.14,-1230 1996.14,-1230"/>
<text text-anchor="middle" x="1303.312" y="-1187" font-family="Arial" font-size="40.00" fill="#f5fffa">Baseline BMI 30 kg/m2 or greater with at least one weight-related comorbidity?</text>
</g>
<!-- q2&#45;&gt;q3 -->
<g id="edge3" class="edge">
<title>q2-&gt;q3</title>
<path fill="none" stroke="#36648b" d="M1678.8607,-1313.9478C1601.1859,-1290.1732 1494.1554,-1257.4133 1414.2223,-1232.9474"/>
<polygon fill="#36648b" stroke="#36648b" points="1404.6125,-1230.006 1415.4917,-1228.6299 1409.3935,-1231.4694 1414.1746,-1232.9329 1414.1746,-1232.9329 1414.1746,-1232.9329 1409.3935,-1231.4694 1412.8575,-1237.2358 1404.6125,-1230.006 1404.6125,-1230.006"/>
<text text-anchor="middle" x="1646.768" y="-1260" font-family="Arial" font-size="40.00" fill="#000000">Yes</text>
</g>
<!-- q2&#45;&gt;ineligible -->
<g id="edge4" class="edge">
<title>q2-&gt;ineligible</title>
<path fill="none" stroke="#36648b" d="M1929.2283,-1313.9094C1985.5464,-1292.6592 2036.312,-1257.3274 2036.312,-1199 2036.312,-1199 2036.312,-1199 2036.312,-177 2036.312,-103.615 1954.5135,-66.3415 1885.062,-47.9199"/>
<polygon fill="#36648b" stroke="#36648b" points="1875.3539,-45.4439 1886.1558,-43.5549 1880.1988,-46.6796 1885.0437,-47.9153 1885.0437,-47.9153 1885.0437,-47.9153 1880.1988,-46.6796 1883.9315,-52.2757 1875.3539,-45.4439 1875.3539,-45.4439"/>
<text text-anchor="middle" x="2061.868" y="-676" font-family="Arial" font-size="40.00" fill="#000000">No</text>
</g>
<!-- q4 -->
<g id="node4" class="node">
<title>q4</title>
<path fill="#36648b" stroke="#36648b" d="M1916.884,-1084C1916.884,-1084 499.74,-1084 499.74,-1084 493.74,-1084 487.74,-1078 487.74,-1072 487.74,-1072 487.74,-1034 487.74,-1034 487.74,-1028 493.74,-1022 499.74,-1022 499.74,-1022 1916.884,-1022 1916.884,-1022 1922.884,-1022 1928.884,-1028 1928.884,-1034 1928.884,-1034 1928.884,-1072 1928.884,-1072 1928.884,-1078 1922.884,-1084 1916.884,-1084"/>
<text text-anchor="middle" x="1208.312" y="-1041" font-family="Arial" font-size="40.00" fill="#f5fffa">Patient has attempted to lose weight through KP-approved weight loss program?</text>
</g>
<!-- q3&#45;&gt;q4 -->
<g id="edge5" class="edge">
<title>q3-&gt;q4</title>
<path fill="none" stroke="#36648b" d="M1282.9321,-1167.6793C1268.6079,-1145.6653 1249.3353,-1116.0463 1233.9648,-1092.4243"/>
<polygon fill="#36648b" stroke="#36648b" points="1228.4949,-1084.018 1237.7207,-1089.9455 1231.2219,-1088.2089 1233.9489,-1092.3998 1233.9489,-1092.3998 1233.9489,-1092.3998 1231.2219,-1088.2089 1230.1771,-1094.8541 1228.4949,-1084.018 1228.4949,-1084.018"/>
<text text-anchor="middle" x="1303.768" y="-1114" font-family="Arial" font-size="40.00" fill="#000000">Yes</text>
</g>
<!-- q3&#45;&gt;ineligible -->
<g id="edge6" class="edge">
<title>q3-&gt;ineligible</title>
<path fill="none" stroke="#36648b" d="M1605.6961,-1167.9634C1741.3268,-1149.312 1883.1224,-1121.7615 1938.312,-1084 1951.6487,-1074.8749 1957.312,-1069.1597 1957.312,-1053 1957.312,-1053 1957.312,-1053 1957.312,-177 1957.312,-127.7568 1915.6816,-91.3609 1873.8676,-67.224"/>
<polygon fill="#36648b" stroke="#36648b" points="1864.9571,-62.2594 1875.883,-63.1956 1869.3249,-64.693 1873.6927,-67.1266 1873.6927,-67.1266 1873.6927,-67.1266 1869.3249,-64.693 1871.5024,-71.0576 1864.9571,-62.2594 1864.9571,-62.2594"/>
<text text-anchor="middle" x="1982.868" y="-603" font-family="Arial" font-size="40.00" fill="#000000">No</text>
</g>
<!-- q5 -->
<g id="node5" class="node">
<title>q5</title>
<path fill="#36648b" stroke="#36648b" d="M1851.4001,-938C1851.4001,-938 439.2239,-938 439.2239,-938 433.2239,-938 427.2239,-932 427.2239,-926 427.2239,-926 427.2239,-888 427.2239,-888 427.2239,-882 433.2239,-876 439.2239,-876 439.2239,-876 1851.4001,-876 1851.4001,-876 1857.4001,-876 1863.4001,-882 1863.4001,-888 1863.4001,-888 1863.4001,-926 1863.4001,-926 1863.4001,-932 1857.4001,-938 1851.4001,-938"/>
<text text-anchor="middle" x="1145.312" y="-895" font-family="Arial" font-size="40.00" fill="#f5fffa">Patient has documented intolerance or contraindication to all listed medications?</text>
</g>
<!-- q4&#45;&gt;q5 -->
<g id="edge7" class="edge">
<title>q4-&gt;q5</title>
<path fill="none" stroke="#36648b" d="M1194.7969,-1021.6793C1185.4227,-999.9549 1172.8527,-970.8244 1162.7275,-947.3598"/>
<polygon fill="#36648b" stroke="#36648b" points="1158.6965,-938.018 1166.7902,-945.4167 1160.6775,-942.6088 1162.6585,-947.1996 1162.6585,-947.1996 1162.6585,-947.1996 1160.6775,-942.6088 1158.5267,-948.9825 1158.6965,-938.018 1158.6965,-938.018"/>
<text text-anchor="middle" x="1219.768" y="-968" font-family="Arial" font-size="40.00" fill="#000000">Yes</text>
</g>
<!-- q4&#45;&gt;ineligible -->
<g id="edge8" class="edge">
<title>q4-&gt;ineligible</title>
<path fill="none" stroke="#36648b" d="M1533.8072,-1021.9786C1672.7306,-1003.6378 1815.8001,-976.3489 1872.312,-938 1885.6836,-928.9261 1891.312,-923.1597 1891.312,-907 1891.312,-907 1891.312,-907 1891.312,-177 1891.312,-134.888 1862.4421,-96.2607 1835.4207,-69.3296"/>
<polygon fill="#36648b" stroke="#36648b" points="1827.8738,-62.0507 1838.1955,-65.7539 1831.4727,-65.5218 1835.0715,-68.9929 1835.0715,-68.9929 1835.0715,-68.9929 1831.4727,-65.5218 1831.9475,-72.2318 1827.8738,-62.0507 1827.8738,-62.0507"/>
<text text-anchor="middle" x="1916.868" y="-530" font-family="Arial" font-size="40.00" fill="#000000">No</text>
</g>
<!-- q6 -->
<g id="node6" class="node">
<title>q6</title>
<path fill="#36648b" stroke="#36648b" d="M1772.2721,-792C1772.2721,-792 450.3519,-792 450.3519,-792 444.3519,-792 438.3519,-786 438.3519,-780 438.3519,-780 438.3519,-742 438.3519,-742 438.3519,-736 444.3519,-730 450.3519,-730 450.3519,-730 1772.2721,-730 1772.2721,-730 1778.2721,-730 1784.2721,-736 1784.2721,-742 1784.2721,-742 1784.2721,-780 1784.2721,-780 1784.2721,-786 1778.2721,-792 1772.2721,-792"/>
<text text-anchor="middle" x="1111.312" y="-749" font-family="Arial" font-size="40.00" fill="#f5fffa">Wegovy not used with another weight loss drug or GLP-1 receptor agonist?</text>
</g>
<!-- q5&#45;&gt;q6 -->
<g id="edge9" class="edge">
<title>q5-&gt;q6</title>
<path fill="none" stroke="#36648b" d="M1138.0181,-875.6793C1133.004,-854.148 1126.2957,-825.3417 1120.8569,-801.9869"/>
<polygon fill="#36648b" stroke="#36648b" points="1118.5354,-792.018 1125.1862,-800.7367 1119.6694,-796.8877 1120.8035,-801.7574 1120.8035,-801.7574 1120.8035,-801.7574 1119.6694,-796.8877 1116.4208,-802.778 1118.5354,-792.018 1118.5354,-792.018"/>
<text text-anchor="middle" x="1167.768" y="-822" font-family="Arial" font-size="40.00" fill="#000000">Yes</text>
</g>
<!-- q5&#45;&gt;ineligible -->
<g id="edge10" class="edge">
<title>q5-&gt;ineligible</title>
<path fill="none" stroke="#36648b" d="M1457.7736,-875.9927C1594.9792,-857.4843 1737.4914,-830.0491 1793.312,-792 1806.6647,-782.8983 1812.312,-777.1597 1812.312,-761 1812.312,-761 1812.312,-761 1812.312,-542 1812.312,-367.2387 1798.7206,-159.1975 1792.4338,-72.3136"/>
<polygon fill="#36648b" stroke="#36648b" points="1791.6868,-62.0856 1796.9033,-71.7312 1792.051,-67.0723 1792.4153,-72.059 1792.4153,-72.059 1792.4153,-72.059 1792.051,-67.0723 1787.9272,-72.3869 1791.6868,-62.0856 1791.6868,-62.0856"/>
<text text-anchor="middle" x="1836.868" y="-457" font-family="Arial" font-size="40.00" fill="#000000">No</text>
</g>
<!-- q7 -->
<g id="node7" class="node">
<title>q7</title>
<path fill="#36648b" stroke="#36648b" d="M1716.576,-646C1716.576,-646 440.048,-646 440.048,-646 434.048,-646 428.048,-640 428.048,-634 428.048,-634 428.048,-596 428.048,-596 428.048,-590 434.048,-584 440.048,-584 440.048,-584 1716.576,-584 1716.576,-584 1722.576,-584 1728.576,-590 1728.576,-596 1728.576,-596 1728.576,-634 1728.576,-634 1728.576,-640 1722.576,-646 1716.576,-646"/>
<text text-anchor="middle" x="1078.312" y="-603" font-family="Arial" font-size="40.00" fill="#f5fffa">Initial prescription is limited to a maximum of 30-day supply with 2 refills?</text>
</g>
<!-- q6&#45;&gt;q7 -->
<g id="edge11" class="edge">
<title>q6-&gt;q7</title>
<path fill="none" stroke="#36648b" d="M1104.2327,-729.6793C1099.366,-708.148 1092.855,-679.3417 1087.5762,-655.9869"/>
<polygon fill="#36648b" stroke="#36648b" points="1085.3229,-646.018 1091.9169,-654.7798 1086.4253,-650.8949 1087.5276,-655.7719 1087.5276,-655.7719 1087.5276,-655.7719 1086.4253,-650.8949 1083.1384,-656.764 1085.3229,-646.018 1085.3229,-646.018"/>
<text text-anchor="middle" x="1133.768" y="-676" font-family="Arial" font-size="40.00" fill="#000000">Yes</text>
</g>
<!-- q6&#45;&gt;ineligible -->
<g id="edge12" class="edge">
<title>q6-&gt;ineligible</title>
<path fill="none" stroke="#36648b" d="M1406.4898,-729.9901C1541.0883,-711.235 1682.5279,-683.5854 1737.312,-646 1750.6372,-636.8581 1756.312,-631.1597 1756.312,-615 1756.312,-615 1756.312,-615 1756.312,-177 1756.312,-140.8527 1766.0548,-100.8825 1774.9528,-71.9159"/>
<polygon fill="#36648b" stroke="#36648b" points="1778.0476,-62.1533 1779.3153,-73.0456 1776.5366,-66.9195 1775.0257,-71.6858 1775.0257,-71.6858 1775.0257,-71.6858 1776.5366,-66.9195 1770.7361,-70.3259 1778.0476,-62.1533 1778.0476,-62.1533"/>
<text text-anchor="middle" x="1781.868" y="-384" font-family="Arial" font-size="40.00" fill="#000000">No</text>
</g>
<!-- q8 -->
<g id="node8" class="node">
<title>q8</title>
<path fill="#36648b" stroke="#36648b" d="M1632.504,-500C1632.504,-500 558.12,-500 558.12,-500 552.12,-500 546.12,-494 546.12,-488 546.12,-488 546.12,-450 546.12,-450 546.12,-444 552.12,-438 558.12,-438 558.12,-438 1632.504,-438 1632.504,-438 1638.504,-438 1644.504,-444 1644.504,-450 1644.504,-450 1644.504,-488 1644.504,-488 1644.504,-494 1638.504,-500 1632.504,-500"/>
<text text-anchor="middle" x="1095.312" y="-457" font-family="Arial" font-size="40.00" fill="#f5fffa">For Type 2 DM patients,do they meet both additional criteria?</text>
</g>
<!-- q7&#45;&gt;q8 -->
<g id="edge13" class="edge">
<title>q7-&gt;q8</title>
<path fill="none" stroke="#36648b" d="M1081.9589,-583.6793C1084.466,-562.148 1087.8202,-533.3417 1090.5396,-509.9869"/>
<polygon fill="#36648b" stroke="#36648b" points="1091.7003,-500.018 1095.0135,-510.4714 1091.122,-504.9844 1090.5437,-509.9509 1090.5437,-509.9509 1090.5437,-509.9509 1091.122,-504.9844 1086.0739,-509.4304 1091.7003,-500.018 1091.7003,-500.018"/>
<text text-anchor="middle" x="1123.768" y="-530" font-family="Arial" font-size="40.00" fill="#000000">Yes</text>
</g>
<!-- q7&#45;&gt;ineligible -->
<g id="edge14" class="edge">
<title>q7-&gt;ineligible</title>
<path fill="none" stroke="#36648b" d="M1441.8609,-583.9315C1567.4706,-562.865 1677.312,-527.67 1677.312,-469 1677.312,-469 1677.312,-469 1677.312,-177 1677.312,-133.7445 1708.6433,-95.4028 1738.1631,-68.8775"/>
<polygon fill="#36648b" stroke="#36648b" points="1746.0099,-62.0544 1741.4164,-72.0119 1742.2368,-65.3353 1738.4637,-68.6161 1738.4637,-68.6161 1738.4637,-68.6161 1742.2368,-65.3353 1735.5109,-65.2203 1746.0099,-62.0544 1746.0099,-62.0544"/>
<text text-anchor="middle" x="1702.868" y="-311" font-family="Arial" font-size="40.00" fill="#000000">No</text>
</g>
<!-- q9 -->
<g id="node9" class="node">
<title>q9</title>
<path fill="#36648b" stroke="#36648b" d="M1507.2681,-354C1507.2681,-354 683.3559,-354 683.3559,-354 677.3559,-354 671.3559,-348 671.3559,-342 671.3559,-342 671.3559,-304 671.3559,-304 671.3559,-298 677.3559,-292 683.3559,-292 683.3559,-292 1507.2681,-292 1507.2681,-292 1513.2681,-292 1519.2681,-298 1519.2681,-304 1519.2681,-304 1519.2681,-342 1519.2681,-342 1519.2681,-348 1513.2681,-354 1507.2681,-354"/>
<text text-anchor="middle" x="1095.312" y="-311" font-family="Arial" font-size="40.00" fill="#f5fffa">Patient continues to meet initial review criteria?</text>
</g>
<!-- q8&#45;&gt;q9 -->
<g id="edge15" class="edge">
<title>q8-&gt;q9</title>
<path fill="none" stroke="#36648b" d="M1095.312,-437.6793C1095.312,-416.2446 1095.312,-387.5999 1095.312,-364.3014"/>
<polygon fill="#36648b" stroke="#36648b" points="1095.312,-354.018 1099.8121,-364.0179 1095.312,-359.018 1095.3121,-364.018 1095.3121,-364.018 1095.3121,-364.018 1095.312,-359.018 1090.8121,-364.018 1095.312,-354.018 1095.312,-354.018"/>
<text text-anchor="middle" x="1129.768" y="-384" font-family="Arial" font-size="40.00" fill="#000000">Yes</text>
</g>
<!-- q8&#45;&gt;ineligible -->
<g id="edge16" class="edge">
<title>q8-&gt;ineligible</title>
<path fill="none" stroke="#36648b" d="M1269.419,-437.9805C1371.4692,-416.9272 1488.0357,-386.9918 1528.312,-354 1633.3326,-267.9739 1563.2386,-171.7341 1663.312,-80 1672.3906,-71.6779 1683.0412,-64.7087 1694.2379,-58.8875"/>
<polygon fill="#36648b" stroke="#36648b" points="1703.315,-54.4612 1696.2991,-62.889 1698.8208,-56.6527 1694.3267,-58.8443 1694.3267,-58.8443 1694.3267,-58.8443 1698.8208,-56.6527 1692.3543,-54.7996 1703.315,-54.4612 1703.315,-54.4612"/>
<text text-anchor="middle" x="1620.868" y="-238" font-family="Arial" font-size="40.00" fill="#000000">No</text>
</g>
<!-- q10 -->
<g id="node10" class="node">
<title>q10</title>
<path fill="#36648b" stroke="#36648b" d="M1484.436,-208C1484.436,-208 12.188,-208 12.188,-208 6.188,-208 .188,-202 .188,-196 .188,-196 .188,-158 .188,-158 .188,-152 6.188,-146 12.188,-146 12.188,-146 1484.436,-146 1484.436,-146 1490.436,-146 1496.436,-152 1496.436,-158 1496.436,-158 1496.436,-196 1496.436,-196 1496.436,-202 1490.436,-208 1484.436,-208"/>
<text text-anchor="middle" x="748.312" y="-165" font-family="Arial" font-size="40.00" fill="#f5fffa">Documented weight loss of at least 10% from baseline weight in the past 3 months?</text>
</g>
<!-- q9&#45;&gt;q10 -->
<g id="edge17" class="edge">
<title>q9-&gt;q10</title>
<path fill="none" stroke="#36648b" d="M1021.2974,-291.8584C965.6761,-268.4558 889.4516,-236.3844 831.6825,-212.0781"/>
<polygon fill="#36648b" stroke="#36648b" points="822.2128,-208.0937 833.1754,-207.8242 826.8215,-210.0329 831.4302,-211.972 831.4302,-211.972 831.4302,-211.972 826.8215,-210.0329 829.685,-216.1198 822.2128,-208.0937 822.2128,-208.0937"/>
<text text-anchor="middle" x="1006.768" y="-238" font-family="Arial" font-size="40.00" fill="#000000">Yes</text>
</g>
<!-- q9&#45;&gt;ineligible -->
<g id="edge18" class="edge">
<title>q9-&gt;ineligible</title>
<path fill="none" stroke="#36648b" d="M1314.2326,-291.9466C1380.1178,-274.9429 1449.6339,-248.6488 1505.312,-208 1531.9715,-188.5368 1526.9947,-172.8459 1546.2,-146 1567.7866,-115.8255 1566.2959,-100.3589 1597.312,-80 1625.721,-61.3523 1660.7931,-49.8 1693.1563,-42.6437"/>
<polygon fill="#36648b" stroke="#36648b" points="1703.1027,-40.5609 1694.2374,-47.015 1698.2089,-41.5857 1693.315,-42.6105 1693.315,-42.6105 1693.315,-42.6105 1698.2089,-41.5857 1692.3927,-38.206 1703.1027,-40.5609 1703.1027,-40.5609"/>
<text text-anchor="middle" x="1570.868" y="-165" font-family="Arial" font-size="40.00" fill="#000000">No</text>
</g>
<!-- q10&#45;&gt;ineligible -->
<g id="edge20" class="edge">
<title>q10-&gt;ineligible</title>
<path fill="none" stroke="#36648b" d="M969.3997,-145.9925C1193.4719,-114.5664 1529.7231,-67.4073 1693.2054,-44.4789"/>
<polygon fill="#36648b" stroke="#36648b" points="1703.2442,-43.071 1693.9662,-48.9164 1698.2927,-43.7655 1693.3411,-44.46 1693.3411,-44.46 1693.3411,-44.46 1698.2927,-43.7655 1692.7161,-40.0036 1703.2442,-43.071 1703.2442,-43.071"/>
<text text-anchor="middle" x="1447.868" y="-92" font-family="Arial" font-size="40.00" fill="#000000">No</text>
</g>
<!-- eligible -->
<g id="node12" class="node">
<title>eligible</title>
<path fill="#006400" stroke="#006400" d="M807.7,-62C807.7,-62 688.924,-62 688.924,-62 682.924,-62 676.924,-56 676.924,-50 676.924,-50 676.924,-12 676.924,-12 676.924,-6 682.924,0 688.924,0 688.924,0 807.7,0 807.7,0 813.7,0 819.7,-6 819.7,-12 819.7,-12 819.7,-50 819.7,-50 819.7,-56 813.7,-62 807.7,-62"/>
<text text-anchor="middle" x="748.312" y="-19" font-family="Arial" font-size="40.00" fill="#f5fffa">Eligible</text>
</g>
<!-- q10&#45;&gt;eligible -->
<g id="edge19" class="edge">
<title>q10-&gt;eligible</title>
<path fill="none" stroke="#36648b" d="M748.312,-145.6793C748.312,-124.2446 748.312,-95.5999 748.312,-72.3014"/>
<polygon fill="#36648b" stroke="#36648b" points="748.312,-62.018 752.8121,-72.0179 748.312,-67.018 748.3121,-72.018 748.3121,-72.018 748.3121,-72.018 748.312,-67.018 743.8121,-72.018 748.312,-62.018 748.312,-62.018"/>
<text text-anchor="middle" x="782.768" y="-92" font-family="Arial" font-size="40.00" fill="#000000">Yes</text>
</g>
</g>
</svg>