<?xml version="1.0" encoding="UTF-8" standalone="no"?><!DOCTYPE svg PUBLIC "-//W3C//DTD SVG 1.1//EN" "http://www.w3.org/Graphics/SVG/1.1/DTD/svg11.dtd"><!-- Generated by graphviz version 2.40.1 (20161225.0304)
 --><!-- Title: G Pages: 1 --><svg xmlns="http://www.w3.org/2000/svg" xmlns:xlink="http://www.w3.org/1999/xlink" width="3499pt" height="1110pt" viewBox="0.00 0.00 3498.67 1110.00">
<g id="graph0" class="graph" transform="scale(1 1) rotate(0) translate(4 1106)">
<title>G</title>
<polygon fill="#ffffff" stroke="transparent" points="-4,4 -4,-1106 3494.67,-1106 3494.67,4 -4,4"/>
<!-- notEligible -->
<g id="node1" class="node">
<title>notEligible</title>
<path fill="#ff0000" stroke="#ff0000" d="M658.9421,-62C658.9421,-62 466.4779,-62 466.4779,-62 460.4779,-62 454.4779,-56 454.4779,-50 454.4779,-50 454.4779,-12 454.4779,-12 454.4779,-6 460.4779,0 466.4779,0 466.4779,0 658.9421,0 658.9421,0 664.9421,0 670.9421,-6 670.9421,-12 670.9421,-12 670.9421,-50 670.9421,-50 670.9421,-56 664.9421,-62 658.9421,-62"/>
<text text-anchor="middle" x="562.71" y="-19" font-family="Arial" font-size="40.00" fill="#f5fffa">Not Eligible</text>
</g>
<!-- eligible -->
<g id="node2" class="node">
<title>eligible</title>
<path fill="#006400" stroke="#006400" d="M2830.098,-62C2830.098,-62 2711.322,-62 2711.322,-62 2705.322,-62 2699.322,-56 2699.322,-50 2699.322,-50 2699.322,-12 2699.322,-12 2699.322,-6 2705.322,0 2711.322,0 2711.322,0 2830.098,0 2830.098,0 2836.098,0 2842.098,-6 2842.098,-12 2842.098,-12 2842.098,-50 2842.098,-50 2842.098,-56 2836.098,-62 2830.098,-62"/>
<text text-anchor="middle" x="2770.71" y="-19" font-family="Arial" font-size="40.00" fill="#f5fffa">Eligible</text>
</g>
<!-- start -->
<g id="node3" class="node">
<title>start</title>
<path fill="#36648b" stroke="#36648b" d="M1800.01,-1102C1800.01,-1102 1243.41,-1102 1243.41,-1102 1237.41,-1102 1231.41,-1096 1231.41,-1090 1231.41,-1090 1231.41,-1052 1231.41,-1052 1231.41,-1046 1237.41,-1040 1243.41,-1040 1243.41,-1040 1800.01,-1040 1800.01,-1040 1806.01,-1040 1812.01,-1046 1812.01,-1052 1812.01,-1052 1812.01,-1090 1812.01,-1090 1812.01,-1096 1806.01,-1102 1800.01,-1102"/>
<text text-anchor="middle" x="1521.71" y="-1059" font-family="Arial" font-size="40.00" fill="#f5fffa">Starting or Continuing Therapy?</text>
</g>
<!-- node1 -->
<g id="node4" class="node">
<title>node1</title>
<path fill="#36648b" stroke="#36648b" d="M1413.6301,-920C1413.6301,-920 11.7899,-920 11.7899,-920 5.7899,-920 -.2101,-914 -.2101,-908 -.2101,-908 -.2101,-870 -.2101,-870 -.2101,-864 5.7899,-858 11.7899,-858 11.7899,-858 1413.6301,-858 1413.6301,-858 1419.6301,-858 1425.6301,-864 1425.6301,-870 1425.6301,-870 1425.6301,-908 1425.6301,-908 1425.6301,-914 1419.6301,-920 1413.6301,-920"/>
<text text-anchor="middle" x="712.71" y="-877" font-family="Arial" font-size="40.00" fill="#f5fffa">Is Wegovy being used with reduced-calorie diet and increased physical activity?</text>
</g>
<!-- start&#45;&gt;node1 -->
<g id="edge1" class="edge">
<title>start-&gt;node1</title>
<path fill="none" stroke="#36648b" d="M1383.5572,-1039.9199C1238.087,-1007.1936 1009.8843,-955.855 860.7817,-922.3116"/>
<polygon fill="#36648b" stroke="#36648b" points="850.6311,-920.028 861.375,-917.8326 855.5092,-921.1254 860.3873,-922.2229 860.3873,-922.2229 860.3873,-922.2229 855.5092,-921.1254 859.3996,-926.6132 850.6311,-920.028 850.6311,-920.028"/>
<text text-anchor="middle" x="1281.614" y="-968" font-family="Arial" font-size="40.00" fill="#000000">Starting</text>
</g>
<!-- node5 -->
<g id="node5" class="node">
<title>node5</title>
<path fill="#36648b" stroke="#36648b" d="M3207.986,-920C3207.986,-920 1455.434,-920 1455.434,-920 1449.434,-920 1443.434,-914 1443.434,-908 1443.434,-908 1443.434,-870 1443.434,-870 1443.434,-864 1449.434,-858 1455.434,-858 1455.434,-858 3207.986,-858 3207.986,-858 3213.986,-858 3219.986,-864 3219.986,-870 3219.986,-870 3219.986,-908 3219.986,-908 3219.986,-914 3213.986,-920 3207.986,-920"/>
<text text-anchor="middle" x="2331.71" y="-877" font-family="Arial" font-size="40.00" fill="#f5fffa">Has the patient completed at least 3 months of therapy with Wegovy at a stable maintenance dose?</text>
</g>
<!-- start&#45;&gt;node5 -->
<g id="edge2" class="edge">
<title>start-&gt;node5</title>
<path fill="none" stroke="#36648b" d="M1660.0336,-1039.9199C1805.6835,-1007.1936 2034.1684,-955.855 2183.4553,-922.3116"/>
<polygon fill="#36648b" stroke="#36648b" points="2193.6184,-920.028 2184.8482,-926.6109 2188.74,-921.1242 2183.8616,-922.2203 2183.8616,-922.2203 2183.8616,-922.2203 2188.74,-921.1242 2182.8751,-917.8298 2193.6184,-920.028 2193.6184,-920.028"/>
<text text-anchor="middle" x="2118.29" y="-968" font-family="Arial" font-size="40.00" fill="#000000">Continuing</text>
</g>
<!-- node1&#45;&gt;notEligible -->
<g id="edge4" class="edge">
<title>node1-&gt;notEligible</title>
<path fill="none" stroke="#36648b" d="M397.6336,-857.9597C346.2886,-848.6868 302.4667,-836.8885 279.71,-822 229.0499,-788.8558 206.71,-767.5391 206.71,-707 206.71,-707 206.71,-707 206.71,-237 206.71,-167.2208 224.5781,-140.7739 279.71,-98 305.7965,-77.7609 379.0921,-60.7143 444.5516,-48.8807"/>
<polygon fill="#36648b" stroke="#36648b" points="454.5633,-47.0998 445.506,-53.2817 449.6405,-47.9755 444.7178,-48.8512 444.7178,-48.8512 444.7178,-48.8512 449.6405,-47.9755 443.9297,-44.4208 454.5633,-47.0998 454.5633,-47.0998"/>
<text text-anchor="middle" x="232.266" y="-472" font-family="Arial" font-size="40.00" fill="#000000">No</text>
</g>
<!-- node2 -->
<g id="node6" class="node">
<title>node2</title>
<path fill="#36648b" stroke="#36648b" d="M2185.87,-738C2185.87,-738 333.55,-738 333.55,-738 327.55,-738 321.55,-732 321.55,-726 321.55,-726 321.55,-688 321.55,-688 321.55,-682 327.55,-676 333.55,-676 333.55,-676 2185.87,-676 2185.87,-676 2191.87,-676 2197.87,-682 2197.87,-688 2197.87,-688 2197.87,-726 2197.87,-726 2197.87,-732 2191.87,-738 2185.87,-738"/>
<text text-anchor="middle" x="1259.71" y="-695" font-family="Arial" font-size="40.00" fill="#f5fffa">Has the patient participated in a comprehensive weight management program for at least 6 months prior?</text>
</g>
<!-- node1&#45;&gt;node2 -->
<g id="edge3" class="edge">
<title>node1-&gt;node2</title>
<path fill="none" stroke="#36648b" d="M806.1211,-857.9199C903.5215,-825.5124 1055.7764,-774.8536 1156.6307,-741.297"/>
<polygon fill="#36648b" stroke="#36648b" points="1166.2267,-738.1041 1158.1589,-745.5311 1161.4824,-739.6827 1156.7381,-741.2613 1156.7381,-741.2613 1156.7381,-741.2613 1161.4824,-739.6827 1155.3174,-736.9914 1166.2267,-738.1041 1166.2267,-738.1041"/>
<text text-anchor="middle" x="1085.166" y="-786" font-family="Arial" font-size="40.00" fill="#000000">Yes</text>
</g>
<!-- node5&#45;&gt;notEligible -->
<g id="edge13" class="edge">
<title>node5-&gt;notEligible</title>
<path fill="none" stroke="#36648b" d="M1545.781,-857.9818C1290.6815,-846.565 1041.3681,-833.5954 916.71,-822 776.5318,-808.961 293.71,-847.7833 293.71,-707 293.71,-707 293.71,-707 293.71,-237 293.71,-152.1033 379.2105,-97.4562 453.8048,-65.9346"/>
<polygon fill="#36648b" stroke="#36648b" points="463.3086,-62.0164 455.7787,-69.9883 458.686,-63.9222 454.0635,-65.828 454.0635,-65.828 454.0635,-65.828 458.686,-63.9222 452.3483,-61.6677 463.3086,-62.0164 463.3086,-62.0164"/>
<text text-anchor="middle" x="319.266" y="-472" font-family="Arial" font-size="40.00" fill="#000000">No</text>
</g>
<!-- node6 -->
<g id="node7" class="node">
<title>node6</title>
<path fill="#36648b" stroke="#36648b" d="M3447.442,-738C3447.442,-738 2227.978,-738 2227.978,-738 2221.978,-738 2215.978,-732 2215.978,-726 2215.978,-726 2215.978,-688 2215.978,-688 2215.978,-682 2221.978,-676 2227.978,-676 2227.978,-676 3447.442,-676 3447.442,-676 3453.442,-676 3459.442,-682 3459.442,-688 3459.442,-688 3459.442,-726 3459.442,-726 3459.442,-732 3453.442,-738 3447.442,-738"/>
<text text-anchor="middle" x="2837.71" y="-695" font-family="Arial" font-size="40.00" fill="#f5fffa">What is the percentage of weight loss from the baseline body weight?</text>
</g>
<!-- node5&#45;&gt;node6 -->
<g id="edge12" class="edge">
<title>node5-&gt;node6</title>
<path fill="none" stroke="#36648b" d="M2418.1196,-857.9199C2508.0377,-825.5778 2648.4944,-775.0578 2741.792,-741.5001"/>
<polygon fill="#36648b" stroke="#36648b" points="2751.2337,-738.1041 2743.3469,-745.7232 2746.5288,-739.7964 2741.8239,-741.4888 2741.8239,-741.4888 2741.8239,-741.4888 2746.5288,-739.7964 2740.3008,-737.2543 2751.2337,-738.1041 2751.2337,-738.1041"/>
<text text-anchor="middle" x="2679.166" y="-786" font-family="Arial" font-size="40.00" fill="#000000">Yes</text>
</g>
<!-- node2&#45;&gt;notEligible -->
<g id="edge6" class="edge">
<title>node2-&gt;notEligible</title>
<path fill="none" stroke="#36648b" d="M713.476,-675.9756C629.9076,-666.6705 565.5715,-654.8556 548.71,-640 383.3193,-494.2849 496.518,-182.1601 544.3034,-71.1828"/>
<polygon fill="#36648b" stroke="#36648b" points="548.3064,-62.0009 548.4349,-72.9661 546.3081,-66.5843 544.3099,-71.1677 544.3099,-71.1677 544.3099,-71.1677 546.3081,-66.5843 540.1849,-69.3692 548.3064,-62.0009 548.3064,-62.0009"/>
<text text-anchor="middle" x="494.266" y="-340" font-family="Arial" font-size="40.00" fill="#000000">No</text>
</g>
<!-- node3 -->
<g id="node8" class="node">
<title>node3</title>
<path fill="#36648b" stroke="#36648b" d="M1736.7143,-515C1736.7143,-515 1282.7057,-515 1282.7057,-515 1276.7057,-515 1270.7057,-509 1270.7057,-503 1270.7057,-503 1270.7057,-465 1270.7057,-465 1270.7057,-459 1276.7057,-453 1282.7057,-453 1282.7057,-453 1736.7143,-453 1736.7143,-453 1742.7143,-453 1748.7143,-459 1748.7143,-465 1748.7143,-465 1748.7143,-503 1748.7143,-503 1748.7143,-509 1742.7143,-515 1736.7143,-515"/>
<text text-anchor="middle" x="1509.71" y="-472" font-family="Arial" font-size="40.00" fill="#f5fffa">What is the patient's BMI?</text>
</g>
<!-- node2&#45;&gt;node3 -->
<g id="edge5" class="edge">
<title>node2-&gt;node3</title>
<path fill="none" stroke="#36648b" d="M1294.4714,-675.9928C1339.6818,-635.6651 1418.6148,-565.257 1467.2979,-521.8316"/>
<polygon fill="#36648b" stroke="#36648b" points="1474.8417,-515.1025 1470.3746,-525.1173 1471.1104,-518.4308 1467.3791,-521.7591 1467.3791,-521.7591 1467.3791,-521.7591 1471.1104,-518.4308 1464.3837,-518.401 1474.8417,-515.1025 1474.8417,-515.1025"/>
<text text-anchor="middle" x="1419.166" y="-604" font-family="Arial" font-size="40.00" fill="#000000">Yes</text>
</g>
<!-- node6&#45;&gt;notEligible -->
<g id="edge15" class="edge">
<title>node6-&gt;notEligible</title>
<path fill="none" stroke="#36648b" d="M2215.7731,-676.4108C2212.7444,-676.2732 2209.7231,-676.1363 2206.71,-676 2013.187,-667.2471 1525.6146,-678.2622 1335.71,-640 1005.9806,-573.5658 842.7705,-633.5663 626.45,-376 552.7683,-288.2694 552.951,-143.2103 558.2322,-72.4273"/>
<polygon fill="#36648b" stroke="#36648b" points="559.0765,-62.1315 562.7441,-72.4659 558.6678,-67.1148 558.2591,-72.098 558.2591,-72.098 558.2591,-72.098 558.6678,-67.1148 553.7742,-71.7302 559.0765,-62.1315 559.0765,-62.1315"/>
<text text-anchor="middle" x="867.84" y="-340" font-family="Arial" font-size="40.00" fill="#000000">Weight loss criteria not met</text>
</g>
<!-- node7 -->
<g id="node10" class="node">
<title>node7</title>
<path fill="#36648b" stroke="#36648b" d="M3216.7501,-268C3216.7501,-268 2324.6699,-268 2324.6699,-268 2318.6699,-268 2312.6699,-262 2312.6699,-256 2312.6699,-256 2312.6699,-218 2312.6699,-218 2312.6699,-212 2318.6699,-206 2324.6699,-206 2324.6699,-206 3216.7501,-206 3216.7501,-206 3222.7501,-206 3228.7501,-212 3228.7501,-218 3228.7501,-218 3228.7501,-256 3228.7501,-256 3228.7501,-262 3222.7501,-268 3216.7501,-268"/>
<text text-anchor="middle" x="2770.71" y="-225" font-family="Arial" font-size="40.00" fill="#f5fffa">Is there a documentation of the above weight loss?</text>
</g>
<!-- node6&#45;&gt;node7 -->
<g id="edge14" class="edge">
<title>node6-&gt;node7</title>
<path fill="none" stroke="#36648b" d="M2833.2621,-675.798C2821.5408,-593.5742 2789.8035,-370.9396 2776.5983,-278.3063"/>
<polygon fill="#36648b" stroke="#36648b" points="2775.1564,-268.191 2781.0227,-277.4558 2775.862,-273.1409 2776.5677,-278.0909 2776.5677,-278.0909 2776.5677,-278.0909 2775.862,-273.1409 2772.1128,-278.726 2775.1564,-268.191 2775.1564,-268.191"/>
<text text-anchor="middle" x="3102.528" y="-520" font-family="Arial" font-size="40.00" fill="#000000">&gt;=5% weight loss</text>
<text text-anchor="middle" x="3102.528" y="-472" font-family="Arial" font-size="40.00" fill="#000000">or</text>
<text text-anchor="middle" x="3102.528" y="-424" font-family="Arial" font-size="40.00" fill="#000000">Maintained initial 5% weight loss</text>
</g>
<!-- node3&#45;&gt;notEligible -->
<g id="edge9" class="edge">
<title>node3-&gt;notEligible</title>
<path fill="none" stroke="#36648b" d="M1421.4654,-452.9216C1323.5396,-417.5107 1161.5828,-356.1877 1027.106,-292 876.8144,-220.2637 708.1893,-120.3146 621.3779,-67.3327"/>
<polygon fill="#36648b" stroke="#36648b" points="612.7272,-62.0432 623.6063,-63.4208 616.993,-64.6516 621.2588,-67.2599 621.2588,-67.2599 621.2588,-67.2599 616.993,-64.6516 618.9112,-71.0991 612.7272,-62.0432 612.7272,-62.0432"/>
<text text-anchor="middle" x="1130.012" y="-225" font-family="Arial" font-size="40.00" fill="#000000">&lt;27 kg/m^2</text>
</g>
<!-- node3&#45;&gt;eligible -->
<g id="edge8" class="edge">
<title>node3-&gt;eligible</title>
<path fill="none" stroke="#36648b" d="M1748.81,-474.8071C2199.8831,-454.9945 3140.1701,-400.9779 3237.71,-292 3270.315,-255.5715 3266.4744,-221.5314 3237.71,-182 3191.9336,-119.0888 2973.828,-69.0944 2852.5473,-45.6015"/>
<polygon fill="#36648b" stroke="#36648b" points="2842.5543,-43.6834 2853.2234,-41.1492 2847.4647,-44.626 2852.375,-45.5686 2852.375,-45.5686 2852.375,-45.5686 2847.4647,-44.626 2851.5267,-49.9879 2842.5543,-43.6834 2842.5543,-43.6834"/>
<text text-anchor="middle" x="3375.69" y="-225" font-family="Arial" font-size="40.00" fill="#000000">&gt;=30 kg/m^2</text>
</g>
<!-- node4 -->
<g id="node9" class="node">
<title>node4</title>
<path fill="#36648b" stroke="#36648b" d="M2282.694,-292C2282.694,-292 1254.726,-292 1254.726,-292 1248.726,-292 1242.726,-286 1242.726,-280 1242.726,-280 1242.726,-194 1242.726,-194 1242.726,-188 1248.726,-182 1254.726,-182 1254.726,-182 2282.694,-182 2282.694,-182 2288.694,-182 2294.694,-188 2294.694,-194 2294.694,-194 2294.694,-280 2294.694,-280 2294.694,-286 2288.694,-292 2282.694,-292"/>
<text text-anchor="middle" x="1768.71" y="-249" font-family="Arial" font-size="40.00" fill="#f5fffa">Does the patient have a weight-related comorbidity? </text>
<text text-anchor="middle" x="1768.71" y="-201" font-family="Arial" font-size="40.00" fill="#f5fffa"> (e.g., hypertension, type 2 diabetes mellitus, dyslipidemia)</text>
</g>
<!-- node3&#45;&gt;node4 -->
<g id="edge7" class="edge">
<title>node3-&gt;node4</title>
<path fill="none" stroke="#36648b" d="M1542.2503,-452.9674C1582.5232,-414.5604 1652.0694,-348.2364 1703.4946,-299.1938"/>
<polygon fill="#36648b" stroke="#36648b" points="1710.9448,-292.0888 1706.8137,-302.2468 1707.3264,-295.5395 1703.7081,-298.9903 1703.7081,-298.9903 1703.7081,-298.9903 1707.3264,-295.5395 1700.6024,-295.7337 1710.9448,-292.0888 1710.9448,-292.0888"/>
<text text-anchor="middle" x="1874.752" y="-340" font-family="Arial" font-size="40.00" fill="#000000">&gt;=27 and &lt;=29 kg/m^2</text>
</g>
<!-- node4&#45;&gt;notEligible -->
<g id="edge11" class="edge">
<title>node4-&gt;notEligible</title>
<path fill="none" stroke="#36648b" d="M1492.7456,-181.9373C1354.5725,-155.1366 1184.5736,-123.3212 1031.71,-98 912.586,-78.2676 775.8553,-59.1335 680.8854,-46.4005"/>
<polygon fill="#36648b" stroke="#36648b" points="670.9621,-45.073 681.4706,-41.9388 675.918,-45.736 680.8738,-46.399 680.8738,-46.399 680.8738,-46.399 675.918,-45.736 680.2771,-50.8593 670.9621,-45.073 670.9621,-45.073"/>
<text text-anchor="middle" x="1321.266" y="-110" font-family="Arial" font-size="40.00" fill="#000000">No</text>
</g>
<!-- node4&#45;&gt;eligible -->
<g id="edge10" class="edge">
<title>node4-&gt;eligible</title>
<path fill="none" stroke="#36648b" d="M2036.2402,-181.9988C2254.4887,-137.1293 2548.8728,-76.6072 2689.4361,-47.709"/>
<polygon fill="#36648b" stroke="#36648b" points="2699.2877,-45.6836 2690.3988,-52.1053 2694.3901,-46.6906 2689.4925,-47.6975 2689.4925,-47.6975 2689.4925,-47.6975 2694.3901,-46.6906 2688.5863,-43.2897 2699.2877,-45.6836 2699.2877,-45.6836"/>
<text text-anchor="middle" x="2452.166" y="-110" font-family="Arial" font-size="40.00" fill="#000000">Yes</text>
</g>
<!-- node7&#45;&gt;notEligible -->
<g id="edge17" class="edge">
<title>node7-&gt;notEligible</title>
<path fill="none" stroke="#36648b" d="M2519.1044,-205.9968C2449.387,-197.7796 2373.6501,-189.1993 2303.71,-182 1694.2553,-119.2655 962.9622,-61.5439 681.292,-39.9638"/>
<polygon fill="#36648b" stroke="#36648b" points="671.0565,-39.1803 681.3708,-35.4567 676.0419,-39.562 681.0273,-39.9436 681.0273,-39.9436 681.0273,-39.9436 676.0419,-39.562 680.6839,-44.4305 671.0565,-39.1803 671.0565,-39.1803"/>
<text text-anchor="middle" x="1947.266" y="-110" font-family="Arial" font-size="40.00" fill="#000000">No</text>
</g>
<!-- node7&#45;&gt;eligible -->
<g id="edge16" class="edge">
<title>node7-&gt;eligible</title>
<path fill="none" stroke="#36648b" d="M2770.71,-205.713C2770.71,-170.0671 2770.71,-111.6724 2770.71,-72.31"/>
<polygon fill="#36648b" stroke="#36648b" points="2770.71,-62.2432 2775.2101,-72.2432 2770.71,-67.2432 2770.7101,-72.2432 2770.7101,-72.2432 2770.7101,-72.2432 2770.71,-67.2432 2766.2101,-72.2433 2770.71,-62.2432 2770.71,-62.2432"/>
<text text-anchor="middle" x="2805.166" y="-110" font-family="Arial" font-size="40.00" fill="#000000">Yes</text>
</g>
</g>
</svg>